# xmcd
# 
# Track frame offsets:
#     150
#     12629
#     27483
#     43314
#     81387
#     96632
#     106915
#     132396
#     145541
#     167016
#     189480
# 
# Disc length: 2863
# 
# Revision: 2
# Processed by: cddbd v1.5.2PL0 Copyright (c) Steve Scherf et al.
# Submitted via: fre:ac v1.0.17
# 
DISCID=9c0b2d0b
DTITLE=Jimmy Witherspoon Rob. Ford - Live At The  Monterey Jazz Festival 
DYEAR=1972
DGENRE=Blues
TTITLE0=I'm Gonna Move to The Outskirts Of Town
TTITLE1=S.K. Blues
TTITLE2=Kansas City
TTITLE3=Goin' Down Slow
TTITLE4=Walkin' by Myself
TTITLE5=Ain't Nobody's Business What I Do
TTITLE6=I Want A Little Girl
TTITLE7=I Don't Know
TTITLE8=Early One Morning
TTITLE9=Reds And Whiskey (Incomplete)
TTITLE10=When I Been Drinkin'
EXTD=
EXTT0=
EXTT1=
EXTT2=
EXTT3=
EXTT4=
EXTT5=
EXTT6=
EXTT7=
EXTT8=
EXTT9=
EXTT10=
PLAYORDER=
